<svg width="136" height="18" viewBox="0 0 136 18" fill="none" xmlns="http://www.w3.org/2000/svg">
<path d="M4.74 17.18C3.39333 17.18 2.42 16.9 1.82 16.34C1.23333 15.7667 0.926667 14.8267 0.9 13.52C0.873333 12.0533 0.86 10.5467 0.86 9C0.86 7.44 0.873333 5.92667 0.9 4.46C0.926667 3.15333 1.23333 2.22 1.82 1.66C2.42 1.1 3.39333 0.82 4.74 0.82C6.07333 0.82 7.02667 1.1 7.6 1.66C8.18667 2.22 8.5 3.15333 8.54 4.46C8.58 5.94 8.6 7.45333 8.6 9C8.6 10.5467 8.58 12.0533 8.54 13.52C8.5 14.8267 8.18667 15.7667 7.6 16.34C7.02667 16.9 6.07333 17.18 4.74 17.18ZM4.74 15.08C5.52667 15.08 5.93333 14.72 5.96 14C6 12.9867 6.02667 11.9 6.04 10.74C6.05333 9.56667 6.05333 8.4 6.04 7.24C6.02667 6.08 6 5 5.96 4C5.93333 3.28 5.52667 2.92 4.74 2.92C3.92667 2.92 3.50667 3.28 3.48 4C3.45333 5 3.43333 6.08 3.42 7.24C3.40667 8.4 3.40667 9.56667 3.42 10.74C3.43333 11.9 3.45333 12.9867 3.48 14C3.50667 14.72 3.92667 15.08 4.74 15.08ZM17.497 17.18C16.137 17.18 15.1637 16.9 14.577 16.34C13.9903 15.7667 13.6903 14.8267 13.677 13.52C13.6237 9.34667 13.6237 5.17333 13.677 1H16.257C16.2303 2.38667 16.217 3.82 16.217 5.3C16.217 6.76667 16.217 8.24 16.217 9.72C16.2303 11.1867 16.2437 12.6133 16.257 14C16.257 14.72 16.6703 15.08 17.497 15.08C18.3103 15.08 18.717 14.72 18.717 14C18.7303 12.6133 18.737 11.1867 18.737 9.72C18.7503 8.24 18.757 6.76667 18.757 5.3C18.757 3.82 18.7437 2.38667 18.717 1H21.297C21.3503 5.17333 21.3503 9.34667 21.297 13.52C21.2837 14.8267 20.9837 15.7667 20.397 16.34C19.8103 16.9 18.8437 17.18 17.497 17.18ZM26.6874 17V1H30.1874C31.5341 1 32.5074 1.28 33.1074 1.84C33.7074 2.38667 34.0341 3.3 34.0874 4.58C34.1007 5.22 34.1074 5.77333 34.1074 6.24C34.1074 6.70667 34.1007 7.24667 34.0874 7.86C34.0474 8.67333 33.9007 9.33333 33.6474 9.84C33.4074 10.3467 33.0274 10.7333 32.5074 11L34.3274 17H31.5874L30.0674 11.42H29.2674V17H26.6874ZM29.2674 9.14H30.1874C31.0141 9.14 31.4474 8.75333 31.4874 7.98C31.5541 6.80667 31.5541 5.62667 31.4874 4.44C31.4474 3.66667 31.0141 3.28 30.1874 3.28H29.2674V9.14ZM47.2219 17V1H49.8019V14.72H53.5619V17H47.2219ZM61.9843 17.18C60.6377 17.18 59.6643 16.9 59.0643 16.34C58.4777 15.7667 58.171 14.8267 58.1443 13.52C58.1177 12.0533 58.1043 10.5467 58.1043 9C58.1043 7.44 58.1177 5.92667 58.1443 4.46C58.171 3.15333 58.4777 2.22 59.0643 1.66C59.6643 1.1 60.6377 0.82 61.9843 0.82C63.3177 0.82 64.271 1.1 64.8443 1.66C65.431 2.22 65.7443 3.15333 65.7843 4.46C65.8243 5.94 65.8443 7.45333 65.8443 9C65.8443 10.5467 65.8243 12.0533 65.7843 13.52C65.7443 14.8267 65.431 15.7667 64.8443 16.34C64.271 16.9 63.3177 17.18 61.9843 17.18ZM61.9843 15.08C62.771 15.08 63.1777 14.72 63.2043 14C63.2443 12.9867 63.271 11.9 63.2843 10.74C63.2977 9.56667 63.2977 8.4 63.2843 7.24C63.271 6.08 63.2443 5 63.2043 4C63.1777 3.28 62.771 2.92 61.9843 2.92C61.171 2.92 60.751 3.28 60.7243 4C60.6977 5 60.6777 6.08 60.6643 7.24C60.651 8.4 60.651 9.56667 60.6643 10.74C60.6777 11.9 60.6977 12.9867 60.7243 14C60.751 14.72 61.171 15.08 61.9843 15.08ZM74.7213 17.18C73.3613 17.18 72.3946 16.9 71.8213 16.34C71.248 15.7667 70.948 14.8267 70.9213 13.52C70.8946 12.6533 70.8813 11.6867 70.8813 10.62C70.8813 9.54 70.8813 8.46667 70.8813 7.4C70.8813 6.32 70.8946 5.34 70.9213 4.46C70.9346 3.32667 71.2346 2.44 71.8213 1.8C72.4213 1.14667 73.388 0.82 74.7213 0.82C76.028 0.82 76.9746 1.10667 77.5613 1.68C78.148 2.24 78.4613 3.17333 78.5013 4.48C78.5013 4.81333 78.5013 5.21333 78.5013 5.68C78.5013 6.14667 78.4946 6.55333 78.4813 6.9H75.9013C75.9146 6.48667 75.9213 6.00667 75.9213 5.46C75.9213 4.9 75.9213 4.41333 75.9213 4C75.8946 3.29333 75.4946 2.94 74.7213 2.94C73.9213 2.94 73.5146 3.29333 73.5013 4C73.4613 5.02667 73.4346 6.12 73.4213 7.28C73.4213 8.42667 73.4213 9.57333 73.4213 10.72C73.4346 11.8667 73.4613 12.9533 73.5013 13.98C73.5146 14.7133 73.9213 15.08 74.7213 15.08C75.548 15.08 75.9746 14.7133 76.0013 13.98C76.0013 13.58 76.0013 13.0933 76.0013 12.52C76.0013 11.9467 76.0013 11.46 76.0013 11.06H78.5813C78.5813 11.4333 78.5813 11.84 78.5813 12.28C78.5946 12.72 78.5946 13.1333 78.5813 13.52C78.5413 14.8267 78.2213 15.7667 77.6213 16.34C77.0213 16.9 76.0546 17.18 74.7213 17.18ZM82.8477 17L84.9277 1H89.0877L91.1877 17H88.5277L88.1677 13.34H85.8477L85.4877 17H82.8477ZM86.0877 11.06H87.9277L87.5877 7.52L87.2877 3.28H86.7277L86.4477 7.52L86.0877 11.06ZM96.8733 17V3.28H94.4333V1H101.873V3.28H99.4533V17H96.8733ZM106.458 17V1H109.038V17H106.458ZM118.115 17.18C116.769 17.18 115.795 16.9 115.195 16.34C114.609 15.7667 114.302 14.8267 114.275 13.52C114.249 12.0533 114.235 10.5467 114.235 9C114.235 7.44 114.249 5.92667 114.275 4.46C114.302 3.15333 114.609 2.22 115.195 1.66C115.795 1.1 116.769 0.82 118.115 0.82C119.449 0.82 120.402 1.1 120.975 1.66C121.562 2.22 121.875 3.15333 121.915 4.46C121.955 5.94 121.975 7.45333 121.975 9C121.975 10.5467 121.955 12.0533 121.915 13.52C121.875 14.8267 121.562 15.7667 120.975 16.34C120.402 16.9 119.449 17.18 118.115 17.18ZM118.115 15.08C118.902 15.08 119.309 14.72 119.335 14C119.375 12.9867 119.402 11.9 119.415 10.74C119.429 9.56667 119.429 8.4 119.415 7.24C119.402 6.08 119.375 5 119.335 4C119.309 3.28 118.902 2.92 118.115 2.92C117.302 2.92 116.882 3.28 116.855 4C116.829 5 116.809 6.08 116.795 7.24C116.782 8.4 116.782 9.56667 116.795 10.74C116.809 11.9 116.829 12.9867 116.855 14C116.882 14.72 117.302 15.08 118.115 15.08ZM127.012 17V1H130.872L131.992 6.1L133.172 14.72H133.672L133.212 7.54L133.012 1H135.492V17H131.472L130.332 11.64L129.392 3.26H128.852L129.292 10.88L129.512 17H127.012Z" fill="white"/>
</svg>
