<svg width="140" height="18" viewBox="0 0 140 18" fill="none" xmlns="http://www.w3.org/2000/svg">
<path d="M0.86 17V1H4.24C5.57333 1 6.55333 1.28 7.18 1.84C7.80667 2.38667 8.12 3.3 8.12 4.58C8.12 4.88667 8.12 5.16667 8.12 5.42C8.12 5.67333 8.11333 5.92 8.1 6.16C8.06 6.85333 7.90667 7.4 7.64 7.8C7.38667 8.2 6.99333 8.49333 6.46 8.68V9.12C7.02 9.30667 7.42667 9.60667 7.68 10.02C7.94667 10.4333 8.09333 10.9867 8.12 11.68C8.14667 12.2533 8.14667 12.8333 8.12 13.42C8.06667 14.7 7.74 15.62 7.14 16.18C6.55333 16.7267 5.58667 17 4.24 17H0.86ZM3.44 7.74H4.22C5.08667 7.74 5.52667 7.19333 5.54 6.1C5.54 5.54 5.54 4.98667 5.54 4.44C5.52667 3.66667 5.09333 3.28 4.24 3.28H3.44V7.74ZM3.44 14.72H4.24C5.09333 14.72 5.52667 14.28 5.54 13.4C5.55333 12.8667 5.55333 12.3333 5.54 11.8C5.54 11.16 5.43333 10.7067 5.22 10.44C5.02 10.16 4.68667 10.02 4.22 10.02H3.44V14.72ZM12.3771 17L14.4571 1H18.6171L20.7171 17H18.0571L17.6971 13.34H15.3771L15.0171 17H12.3771ZM15.6171 11.06H17.4571L17.1171 7.52L16.8171 3.28H16.2571L15.9771 7.52L15.6171 11.06ZM29.1212 17.18C27.7612 17.18 26.7945 16.9 26.2212 16.34C25.6478 15.7667 25.3478 14.8267 25.3212 13.52C25.2945 12.6533 25.2812 11.6867 25.2812 10.62C25.2812 9.54 25.2812 8.46667 25.2812 7.4C25.2812 6.32 25.2945 5.34 25.3212 4.46C25.3345 3.32667 25.6345 2.44 26.2212 1.8C26.8212 1.14667 27.7878 0.82 29.1212 0.82C30.4278 0.82 31.3745 1.10667 31.9612 1.68C32.5478 2.24 32.8612 3.17333 32.9012 4.48C32.9012 4.81333 32.9012 5.21333 32.9012 5.68C32.9012 6.14667 32.8945 6.55333 32.8812 6.9H30.3012C30.3145 6.48667 30.3212 6.00667 30.3212 5.46C30.3212 4.9 30.3212 4.41333 30.3212 4C30.2945 3.29333 29.8945 2.94 29.1212 2.94C28.3212 2.94 27.9145 3.29333 27.9012 4C27.8612 5.02667 27.8345 6.12 27.8212 7.28C27.8212 8.42667 27.8212 9.57333 27.8212 10.72C27.8345 11.8667 27.8612 12.9533 27.9012 13.98C27.9145 14.7133 28.3212 15.08 29.1212 15.08C29.9478 15.08 30.3745 14.7133 30.4012 13.98C30.4012 13.58 30.4012 13.0933 30.4012 12.52C30.4012 11.9467 30.4012 11.46 30.4012 11.06H32.9812C32.9812 11.4333 32.9812 11.84 32.9812 12.28C32.9945 12.72 32.9945 13.1333 32.9812 13.52C32.9412 14.8267 32.6212 15.7667 32.0212 16.34C31.4212 16.9 30.4545 17.18 29.1212 17.18ZM37.6675 17V1H40.4275L40.3875 4.76L39.9275 8.56H40.4275L41.4675 4.76L42.8275 1H45.6475L43.0475 7.72L45.7875 17H43.1675L41.3475 10.62L40.3075 12.94V17H37.6675ZM60.554 17V3.28H58.114V1H65.554V3.28H63.134V17H60.554ZM73.8043 17.18C72.4576 17.18 71.4843 16.9 70.8843 16.34C70.2976 15.7667 69.9909 14.8267 69.9643 13.52C69.9376 12.0533 69.9243 10.5467 69.9243 9C69.9243 7.44 69.9376 5.92667 69.9643 4.46C69.9909 3.15333 70.2976 2.22 70.8843 1.66C71.4843 1.1 72.4576 0.82 73.8043 0.82C75.1376 0.82 76.0909 1.1 76.6643 1.66C77.2509 2.22 77.5643 3.15333 77.6043 4.46C77.6443 5.94 77.6643 7.45333 77.6643 9C77.6643 10.5467 77.6443 12.0533 77.6043 13.52C77.5643 14.8267 77.2509 15.7667 76.6643 16.34C76.0909 16.9 75.1376 17.18 73.8043 17.18ZM73.8043 15.08C74.5909 15.08 74.9976 14.72 75.0243 14C75.0643 12.9867 75.0909 11.9 75.1043 10.74C75.1176 9.56667 75.1176 8.4 75.1043 7.24C75.0909 6.08 75.0643 5 75.0243 4C74.9976 3.28 74.5909 2.92 73.8043 2.92C72.9909 2.92 72.5709 3.28 72.5443 4C72.5176 5 72.4976 6.08 72.4843 7.24C72.4709 8.4 72.4709 9.56667 72.4843 10.74C72.4976 11.9 72.5176 12.9867 72.5443 14C72.5709 14.72 72.9909 15.08 73.8043 15.08ZM90.654 17V1H93.234V7.74H95.454V1H98.034V17H95.454V10.02H93.234V17H90.654ZM107.116 17.18C105.769 17.18 104.796 16.9 104.196 16.34C103.609 15.7667 103.302 14.8267 103.276 13.52C103.249 12.0533 103.236 10.5467 103.236 9C103.236 7.44 103.249 5.92667 103.276 4.46C103.302 3.15333 103.609 2.22 104.196 1.66C104.796 1.1 105.769 0.82 107.116 0.82C108.449 0.82 109.402 1.1 109.976 1.66C110.562 2.22 110.876 3.15333 110.916 4.46C110.956 5.94 110.976 7.45333 110.976 9C110.976 10.5467 110.956 12.0533 110.916 13.52C110.876 14.8267 110.562 15.7667 109.976 16.34C109.402 16.9 108.449 17.18 107.116 17.18ZM107.116 15.08C107.902 15.08 108.309 14.72 108.336 14C108.376 12.9867 108.402 11.9 108.416 10.74C108.429 9.56667 108.429 8.4 108.416 7.24C108.402 6.08 108.376 5 108.336 4C108.309 3.28 107.902 2.92 107.116 2.92C106.302 2.92 105.882 3.28 105.856 4C105.829 5 105.809 6.08 105.796 7.24C105.782 8.4 105.782 9.56667 105.796 10.74C105.809 11.9 105.829 12.9867 105.856 14C105.882 14.72 106.302 15.08 107.116 15.08ZM116.013 17V1H120.273L121.473 7.18L121.853 14.7H122.333L122.713 7.18L123.933 1H128.153V17H125.573V12.12L126.073 3.28H125.553L124.653 12.32L123.553 16.98H120.633L119.553 12.32L118.633 3.28H118.133L118.593 12.14V17H116.013ZM133.536 17V1H139.856V3.28H136.116V7.74H139.656V10.02H136.116V14.72H139.856V17H133.536Z" fill="white"/>
</svg>
